# xmcd CD database file
# Copyright (C) 1997 Ti Kan
# 
# Track frame offsets:
#     150
#     9717
#     28805
#     44175
#     57082
#     70302
#     84712
#     100250
#     112515
#     127465
#     149212
#     159865
#     174537
#     189165
#     206657
#     219180
#     233060
#     259130
#     270242
#     286022
# 
# Disc length: 4008 seconds
# 
# Revision: 1
# Processed by: cddbd v1.4b41PL1 Copyright (c) Steve Scherf et al.
# Submitted via: DiscPlay 4.0.4
# 
DISCID=220fa614
DTITLE=various country artists - Our Country, Our Songs  Disk 2
DYEAR=1900
DGENRE=
TTITLE0=A Little Left Over
TTITLE1=Grandpa
TTITLE2=Cafe on the Corner
TTITLE3=Daddy's Oldsmobile
TTITLE4=A Working Man Can't Get NoWhere Today
TTITLE5=God Bless the USA
TTITLE6=America
TTITLE7=Tokyo, Oklahoma
TTITLE8=God Must Have Blessed America
TTITLE9=The Americans
TTITLE10=Let's Hear It for the Working Man
TTITLE11=Working Class Hero
TTITLE12=Making Ends Meet
TTITLE13=Workin' Man
TTITLE14=Tryin' to Make a Livin' on the Road
TTITLE15=No Time to Stop Believing
TTITLE16=An American Trilogy
TTITLE17=America the Beautiful
TTITLE18=My Country
TTITLE19=God Bless America Again
EXTD=
EXTT0=Vince Gill\n
EXTT1=The Judds\n
EXTT2=Sawyer Brown\n
EXTT3=Hal Ketchum\n
EXTT4=Merle Haggard\n
EXTT5=Lee Greenwood\n
EXTT6=Waylon Jennings\n
EXTT7=John Anderson\n
EXTT8=Glen Campbell\n
EXTT9=Tex Ritter\n
EXTT10=Moe Bandy/Joe Stampley\n
EXTT11=Alan Jackson\n
EXTT12=Chris LeDoux\n
EXTT13=The Nitty Gritty Dirt Band\n
EXTT14=John Anderson\n
EXTT15=Palomino Road\n
EXTT16=John Conlee\n
EXTT17=Charlie Rich\n
EXTT18=Jud Strunk\n
EXTT19=Loretta Lynn/Conway Twitty\n
PLAYORDER=
